<?xml version="1.0" encoding="UTF-8" standalone="no"?>
<svg viewBox="0 0 16 16" fill="#6c757d" xmlns="http://www.w3.org/2000/svg">
  <path
    d="M 14.030825,9.1634286 13.730254,8.9897143 C 13.372539,8.7834286 13.158825,8.4131429 13.158825,8 c 0,-0.4131429 0.213714,-0.7834286 0.571429,-0.9897143 L 14.030825,6.8365714 C 14.851397,6.3622857 15.131968,5.3154286 14.658254,4.4948571 L 14.086825,3.5051429 c -0.472571,-0.8188572 -1.523428,-1.1 -2.341714,-0.6274286 l -0.300572,0.1731428 c -0.357714,0.2068572 -0.785714,0.2068572 -1.142857,0 C 9.943968,2.844 9.7302537,2.4742857 9.7302537,2.0611429 V 1.7142857 C 9.7302537,0.76914286 8.9611109,0 8.015968,0 H 6.8731109 C 5.927968,0 5.1588249,0.76914286 5.1588249,1.7142857 v 0.3474286 c 0,0.4131428 -0.2137143,0.7828571 -0.5714286,0.9897143 -0.3577143,0.2062857 -0.7851429,0.2068571 -1.1428572,0 L 3.1439677,2.8777143 C 2.325682,2.4051429 1.2748249,2.6862857 0.801682,3.5051429 L 0.23025345,4.4948571 c -0.47371428,0.8205715 -0.19314286,1.868 0.62742855,2.3417143 L 1.1588249,7.0102857 C 1.5165391,7.2165714 1.7302534,7.5868571 1.7302534,8 c 0,0.4131429 -0.2137143,0.7834286 -0.5714285,0.9897143 L 0.85825343,9.1634286 C 0.03768202,9.6371429 -0.24288941,10.684571 0.23082488,11.505143 l 0.57142855,0.989714 c 0.47314287,0.818857 1.52399997,1.1 2.34171427,0.627429 l 0.3005714,-0.173143 c 0.3577143,-0.207429 0.7851429,-0.206286 1.1428572,0 0.3577143,0.206857 0.5714286,0.576571 0.5714286,0.989714 v 0.346857 C 5.1588249,15.230857 5.927968,16 6.8731109,16 H 8.015968 c 0.9451429,0 1.7142857,-0.769143 1.7142857,-1.714286 v -0.347428 c 0,-0.413143 0.2137143,-0.782857 0.5714283,-0.989715 0.357143,-0.206285 0.785143,-0.206857 1.142857,0 l 0.300572,0.173715 c 0.818286,0.472 1.869143,0.190857 2.341714,-0.627429 l 0.571429,-0.989714 C 15.131968,10.684571 14.851397,9.6371429 14.030825,9.1634286 Z M 7.4445394,10.857143 C 5.8691109,10.857143 4.5873963,9.5754286 4.5873963,8 c 0,-1.5754286 1.2817146,-2.8571429 2.8571431,-2.8571429 1.5754286,0 2.8571426,1.2817143 2.8571426,2.8571429 0,1.5754286 -1.281714,2.857143 -2.8571426,2.857143 z" />
</svg>
