<?xml version="1.0" encoding="UTF-8" standalone="no"?>
<svg
   viewBox="0 0 16 16"
   fill="none"
   stroke="#6c757d"
   stroke-linecap="round"
   stroke-linejoin="round"
   stroke-miterlimit="10"
   stroke-width="1.14286"
   xmlns="http://www.w3.org/2000/svg">
  <circle
     cx="7.4408236"
     cy="8"
     r="2.2857144" />

  <path
     d="M 14.159681,4.7805714 13.588252,3.7908571 C 13.272823,3.244 12.573966,3.0571429 12.027109,3.3725714 L 11.726538,3.5462857 C 10.583681,4.2057143 9.1551091,3.3811429 9.1551091,2.0617143 V 1.7142857 c 0,-0.6314286 -0.5114285,-1.14285713 -1.1428571,-1.14285713 H 6.8693949 c -0.6314286,0 -1.1428572,0.51142853 -1.1428572,1.14285713 v 0.3474286 c 0,1.3194286 -1.4285716,2.1445714 -2.5714288,1.4845714 L 2.8545375,3.3725714 C 2.3076803,3.0571429 1.6088232,3.244 1.2933946,3.7908571 L 0.72196605,4.7805714 C 0.40653749,5.3274286 0.59339462,6.0262857 1.1402518,6.3417143 l 0.3005714,0.1737143 c 1.1428571,0.66 1.1428571,2.3091428 0,2.9691428 L 1.1402518,9.6582857 C 0.59339462,9.9737143 0.40653749,10.672571 0.72196605,11.219429 l 0.57142855,0.989714 c 0.3154286,0.546857 1.0142857,0.733714 1.5611429,0.418286 l 0.3005714,-0.173715 c 1.1428572,-0.66 2.5714288,0.165143 2.5714288,1.484572 v 0.347428 c 0,0.631429 0.5114286,1.142857 1.1428572,1.142857 H 8.012252 c 0.6314286,0 1.1428571,-0.511428 1.1428571,-1.142857 v -0.347428 c 0,-1.319429 1.4285719,-2.144572 2.5714289,-1.484572 l 0.300571,0.173715 c 0.546857,0.315428 1.245714,0.128571 1.561143,-0.418286 l 0.571429,-0.989714 C 14.475109,10.672571 14.288252,9.9737143 13.741395,9.6582857 L 13.440823,9.4845714 c -1.142857,-0.66 -1.142857,-2.3091428 0,-2.9691428 l 0.300572,-0.1737143 c 0.546857,-0.3154286 0.734286,-1.0142857 0.418286,-1.5611429 z" />
</svg>
