<?xml version="1.0" encoding="UTF-8" standalone="no"?>
<svg
   viewBox="0 0 0.72 0.72"
   xmlns="http://www.w3.org/2000/svg"
   fill="#6c757d">
  <path
     d="M 0.68009515,0.29027269 C 0.63285411,0.27767508 0.56919119,0.33076501 0.5374722,0.29702141 0.4990045,0.25607917 0.58853752,0.17262001 0.57931427,0.09635947 0.57189068,0.03382133 0.50035424,0.00457688 0.42949268,0.00412696 A 0.41617107,0.41617107 0 0 0 0.12917464,0.12605384 c -0.14937167,0.14824688 -0.18154057,0.35993173 -0.03081916,0.50570408 0.13969851,0.1349744 0.37365414,0.095157 0.50997828,-0.031494 a 0.39884935,0.39884935 0 0 0 0.094932,-0.14712209 c 0.0242954,-0.0652376 0.026545,-0.14937167 -0.0231706,-0.16286914 z M 0.16651756,0.19309112 a 0.05016549,0.05016549 0 0 1 0.0645628,0.0272198 0.04994053,0.04994053 0 0 1 -0.0407173,0.0569142 0.04994053,0.04994053 0 0 1 -0.0645628,-0.0272198 0.05016549,0.05016549 0 0 1 0.0407173,-0.0569142 z M 0.06911103,0.42367239 a 0.04994053,0.04994053 0 0 1 0.04094224,-0.0569142 0.04994053,0.04994053 0 0 1 0.0643378,0.0272198 0.05016549,0.05016549 0 0 1 -0.0407173,0.0562393 0.05039044,0.05039044 0 0 1 -0.06456274,-0.0265449 z m 0.15747014,0.18738945 a 0.04994053,0.04994053 0 0 1 -0.0645628,-0.0272198 0.05016549,0.05016549 0 0 1 0.0404923,-0.0569142 0.05016549,0.05016549 0 0 1 0.0645628,0.0272198 0.04994053,0.04994053 0 0 1 -0.042067,0.0569142 z m 0.0659125,-0.46993586 a 0.05016549,0.05016549 0 0 1 0.0407173,-0.0569142 0.05039044,0.05039044 0 0 1 0.0645628,0.02721983 0.04994053,0.04994053 0 0 1 -0.0409422,0.0569142 0.04971557,0.04971557 0 0 1 -0.0643379,-0.0272198 z M 0.42341884,0.6403063 A 0.04994053,0.04994053 0 0 1 0.35885604,0.6130865 0.05016549,0.05016549 0 0 1 0.39957334,0.5561723 0.05039044,0.05039044 0 0 1 0.46413614,0.5833921 0.04994053,0.04994053 0 0 1 0.42251904,0.6403063 Z M 0.5358975,0.40500093 a 0.07198635,0.07198635 0 0 1 -0.0380178,0.0395925 0.07940994,0.07940994 0 0 1 -0.031494,0.006749 0.06253814,0.06253814 0 0 1 -0.0575891,-0.0337436 0.05601438,0.05601438 0 0 1 -0.001575,-0.0449915 0.07198635,0.07198635 0 0 1 0.0380178,-0.0395925 0.0674872,0.0674872 0 0 1 0.0899829,0.0269949 0.05713916,0.05713916 0 0 1 0,0.0452164 z"/>
</svg>
