<?xml version="1.0" encoding="UTF-8" standalone="no"?>
<svg viewBox="0 0 16 16" fill="none" xmlns="http://www.w3.org/2000/svg">
  <!--  Screw Driver  -->
  <path
    d="M 2.4569996,0.15662198 C 2.160141,-0.07462259 1.7382893,-0.04649825 1.4695542,0.21912051 L 0.21962341,1.4690912 C -0.04598689,1.7347099 -0.07411034,2.156575 0.15400201,2.456568 L 2.6538637,5.7064917 c 0.1406172,0.1843706 0.3624799,0.2937431 0.5937172,0.2937431 h 1.6905314 l 3.4060615,3.40617 C 7.8848242,10.312634 8.0316911,11.450107 8.791024,12.206339 l 3.499806,3.499918 c 0.390604,0.390616 1.024944,0.390616 1.415547,0 l 1.999889,-1.999953 c 0.390604,-0.390616 0.390604,-1.024976 0,-1.415592 L 12.20646,8.7907942 C 11.450252,8.034562 10.312815,7.8845655 9.406615,8.3439297 L 6.0005535,4.9377597 V 3.2502993 c 0,-0.2343694 -0.109369,-0.4531143 -0.2937338,-0.593736 z"
    fill="#ffea00"/>

  <!--  Wrench  -->
  <path
    d="M 16,4.50027 C 16,4.1721527 15.96563,3.8534102 15.90001,3.5471673 15.82501,3.1971756 15.396912,3.1065527 15.143801,3.3596718 l -1.996764,1.9968281 c -0.09375,0.093748 -0.221863,0.1468715 -0.353106,0.1468715 h -1.79365 c -0.274985,0 -0.499973,-0.2249947 -0.499973,-0.4999882 V 3.2065503 c 0,-0.1312468 0.05312,-0.2593688 0.146867,-0.3531166 L 12.64394,0.85660555 C 12.897051,0.60348649 12.806431,0.17537154 12.45645,0.1003733 12.147092,0.03474984 11.82836,3.7564959e-4 11.500253,3.7564959e-4 9.0160156,3.7564959e-4 7.0005021,2.0159533 7.0005021,4.50027 V 4.525269 L 9.6659796,7.1908318 C 10.790917,6.9064635 12.034598,7.2064564 12.9158,8.0876858 l 0.490598,0.4906134 C 14.937563,7.8595661 16.000004,6.3033526 16.000004,4.50027 Z"
    fill="#1e88e5"/>
  <path
    d="M 0.6227261,12.37821 C 0.22587306,12.775076 8.8551332e-4,13.315688 8.8551332e-4,13.878175 8.8551332e-4,15.050022 0.95083294,16 2.1226431,16 c 0.5624688,0 1.103064,-0.224995 1.499917,-0.62186 L 7.3036064,11.696976 C 7.0598699,11.043866 7.0223719,10.334508 7.1911126,9.6626488 L 5.2630943,7.734569 Z"
    fill="#1e88e5"/>

  <!--  Wrench's hole  -->
  <path
    d="m 1.7507887,13.500059 a 0.74995852,0.74998242 0 1 1 1.499917,0 0.74995852,0.74998242 0 1 1 -1.499917,0 z"
    fill="#000000"/>
</svg>
