<svg viewBox="0 0 24 24" fill="none" xmlns="http://www.w3.org/2000/svg">
    <circle cx="1" cy="1" r="1" transform="matrix(1 0 0 -1 11 19)" id="fill-color" fill="#70e000"/>
    <path d="M20.1915 10.2642C19.2864 8.97153 18.0881 7.9114 16.6947 7.17053C15.3014 6.42965 13.7524 6.02907 12.1746 6.00152C10.5967 5.97398 9.03471 6.32026 7.61632 7.01206C6.19793 7.70385 4.9634 8.72152 4.01367 9.98185M17.7341 12.985C17.1005 12.0801 16.2617 11.338 15.2863 10.8194C14.311 10.3008 13.2267 10.0203 12.1222 10.0011C11.0177 9.98179 9.9243 10.2242 8.93143 10.7084C7.93856 11.1927 7.07439 11.9051 6.40958 12.7873M14.4575 15.2793C14.1859 14.8915 13.8265 14.5734 13.4084 14.3512C12.9904 14.1289 12.5257 14.0087 12.0524 14.0005C11.579 13.9922 11.1104 14.0961 10.6849 14.3036C10.2594 14.5112 9.88904 14.8165 9.60412 15.1946"
          id="stroke-color" stroke="#70e000" stroke-width="2" stroke-linecap="round" stroke-linejoin="round"/>
</svg>
