<?xml version="1.0" encoding="UTF-8" standalone="no"?>
<svg viewBox="0 0 16 16" fill="none" xmlns="http://www.w3.org/2000/svg">
  <path
    fill-rule="evenodd"
    clip-rule="evenodd"
    d="m 3.6778917,2.8124935 c -0.00417,0.00203 -0.00834,0.00406 -0.012516,0.0061 C 2.2920861,3.4883867 1.096814,4.4736909 0.17728589,5.6939427 -0.11526084,6.0821742 -0.03769903,6.6340407 0.35052368,6.9266139 0.7387552,7.219187 1.2906305,7.1415548 1.5831772,6.7533937 2.3355232,5.7549747 3.3134691,4.9488142 4.4370679,4.4007941 4.6260082,4.3086477 4.8181699,4.2242292 5.0130602,4.147662 Z M 6.3906889,5.5252467 C 5.8502031,5.6446524 5.3238444,5.8277659 4.8229229,6.0720873 3.8241606,6.5592251 2.9548734,7.2757828 2.2861273,8.1632722 1.9935805,8.5515214 2.0711423,9.1033967 2.4593651,9.3958818 2.8475878,9.6884549 3.3994719,9.6109107 3.6920186,9.2226616 4.1935826,8.5570665 4.8455436,8.0196262 5.5946153,7.6542619 6.338846,7.291274 7.1579452,7.1084598 7.9857581,7.1203423 Z M 13.091793,9.736865 8.7667453,5.4117998 c 0.8545705,0.1047858 1.6848477,0.3657076 2.4487597,0.7718684 0.981141,0.5216674 1.824885,1.2681514 2.462226,2.1784376 0.278843,0.3981952 0.182022,0.9469898 -0.216173,1.2258321 -0.11416,0.079921 -0.24073,0.129035 -0.369765,0.1489271 z M 7.0057614,3.6508246 5.4986489,2.1437209 c 0.839581,-0.2158915 1.7073543,-0.3187674 2.5800566,-0.3035314 1.5276471,0.026661 3.0273925,0.414505 4.3764505,1.1318285 1.349058,0.7173147 2.509228,1.7437323 3.385627,2.9953362 0.278754,0.3982304 0.182022,0.9470251 -0.216173,1.2258674 C 15.226415,7.4720638 14.677532,7.3752436 14.398778,6.9770484 13.681692,5.9530248 12.732502,5.1132238 11.628663,4.5263259 10.524913,3.9394369 9.2978482,3.6221042 8.0479871,3.6002845 7.6988182,3.5941936 7.3507054,3.6111987 7.0057614,3.6508246 Z m 1.7841327,9.6302774 c 0,-0.486126 -0.3940583,-0.880184 -0.8801839,-0.880184 -0.4861255,0 -0.8801839,0.394058 -0.8801839,0.880184 0,0.486125 0.3940584,0.880184 0.8801839,0.880184 0.4861256,0 0.8801839,-0.394059 0.8801839,-0.880184 z M 6.3663078,9.2364805 C 6.8657241,8.9929336 7.415575,8.8710281 7.9711471,8.8807101 c 0.555484,0.00968 1.1008459,0.1507755 1.5914604,0.411574 0.4905265,0.2608865 0.9123985,0.6340845 1.2311135,1.0892279 0.278842,0.398195 0.182022,0.94699 -0.216173,1.225832 -0.398196,0.278842 -0.9469903,0.18211 -1.2258326,-0.216173 C 9.1924021,11.163643 8.9814221,10.977044 8.7361149,10.846601 8.4908957,10.716158 8.2182147,10.645655 7.9404287,10.640814 7.6626426,10.635973 7.3876732,10.69697 7.137965,10.818699 6.8883448,10.940516 6.6710274,11.119634 6.5037925,11.341528 6.2112194,11.729689 5.6593793,11.807322 5.2711477,11.514749 4.882925,11.222175 4.8053632,10.6703 5.0979099,10.282051 5.432283,9.8383502 5.8669266,9.4800274 6.3663078,9.2364805 Z"
    fill="#6c757d" />
  <path
    d="M 1.7483349,1.8387125 14.070909,14.161288"
    stroke="#ff0000"
    stroke-width="1.76037"
    stroke-linecap="round" />
</svg>
