<?xml version="1.0" encoding="UTF-8" standalone="no"?>
<svg viewBox="0 0 16 16" fill="none" xmlns="http://www.w3.org/2000/svg">
  <circle
    cx="7.9097056"
    cy="-11.442513"
    transform="scale(1,-1)"
    fill="#70e000"
    r="0.88019305" />
  <path
    d="M 15.119807,4.633515 C 14.323144,3.4957158 13.268409,2.5625967 12.041948,1.9104881 10.815575,1.2583707 9.4521557,0.90578292 8.0633871,0.8815336 6.6745305,0.85729309 5.2996777,1.1620863 4.0512206,1.7710039 2.8027636,2.3799127 1.7161388,3.2756588 0.88019307,4.3849925 M 12.95682,7.0283443 C 12.39913,6.2318576 11.660824,5.5786663 10.802284,5.1221982 9.9438316,4.6657301 8.9894382,4.4188359 8.017265,4.4019362 7.0450917,4.3849397 6.0826886,4.5983073 5.2087713,5.0244968 4.3348541,5.4507743 3.5742176,6.0778238 2.9890564,6.8543301 M 10.07278,9.0477713 C 9.8337194,8.7064324 9.517378,8.426443 9.1493693,8.2308641 8.7814486,8.0351972 8.3724229,7.929398 7.9558275,7.9221804 7.5391441,7.9148748 7.1266856,8.0063268 6.7521635,8.1889669 6.3776413,8.371695 6.051653,8.6404179 5.8008684,8.9732189"
    stroke="#70e000"
    stroke-width="1.76039"
    stroke-linecap="round"
    stroke-linejoin="round" />
</svg>
