<?xml version="1.0" encoding="UTF-8" standalone="no"?>
<svg viewBox="0 0 16 16" fill="#fb8500" xmlns="http://www.w3.org/2000/svg">
   <path
   d="M 12.4575,2.7130674 C 12.038523,1.9166867 11.382543,1.2531368 10.56994,0.77181589 9.7576875,0.29262609 8.7772012,2.2906163e-5 7.7130595,2.2906163e-5 6.4013549,-0.00322153 5.311544,0.33852525 4.489017,0.81179874 3.6632138,1.2833864 3.3071533,1.8324587 3.3071533,1.8324587 3.1683744,1.9528844 3.0900945,2.1280837 3.0933707,2.3113622 c 0.00375,0.1835331 0.088268,0.355806 0.2313407,0.4702517 l 1.1429624,0.9154386 c 0.2329629,0.186523 0.5663759,0.1795252 0.7912277,-0.016477 0,0 0.1404012,-0.2537654 0.5804034,-0.5051134 0.4424514,-0.249694 1.0161114,-0.450817 1.8737546,-0.4535207 0.7480323,-0.00162 1.4002584,0.2775262 1.8453817,0.6589695 0.2211303,0.1889722 0.38631,0.4005919 0.4875548,0.5941763 0.102041,0.1951748 0.139288,0.3657937 0.138779,0.4953801 -0.0022,0.437871 -0.08722,0.7242716 -0.2100287,0.9683038 C 9.8810713,5.6210004 9.7588007,5.782713 9.6013822,5.939559 9.3665108,6.1744304 9.047984,6.3914574 8.6905876,6.5909581 8.3329049,6.7928763 7.9473901,6.970493 7.5578357,7.1851344 7.1132214,7.4313295 6.6427152,7.7849725 6.2950203,8.3157233 6.1216976,8.5781088 5.9861631,8.8782823 5.9000903,9.1949324 5.8128723,9.5118689 5.7734938,9.8442004 5.7734938,10.183244 c 0,0.361722 0,0.658683 0,0.658683 0,0.340951 0.2764128,0.617396 0.6173963,0.617396 h 1.4874127 c 0.3409516,0 0.6173963,-0.276445 0.6173963,-0.617396 0,0 0,-0.296961 0,-0.658683 0,-0.130637 0.014854,-0.2148645 0.029168,-0.268334 C 8.5494551,9.835008 8.5632281,9.815032 8.6034331,9.7664295 8.6444658,9.7202441 8.727326,9.6495664 8.8801006,9.5650521 9.103362,9.4395371 9.4621261,9.2699997 9.8683798,9.0505234 10.476583,8.7179374 11.215996,8.2665797 11.839595,7.5217601 12.149788,7.15005 12.424038,6.7024457 12.613264,6.1868356 12.804145,5.6712254 12.907235,5.0916491 12.906726,4.4704677 12.906154,3.8411753 12.735535,3.2435001 12.4575,2.7130674 Z" />
   <circle
   cx="7.1350884"
   cy="14.320911"
   r="1.6790886" />
</svg>
