<?xml version="1.0" encoding="UTF-8" standalone="no"?>
<svg viewBox="0 0 16 16" fill="#6c757d" xmlns="http://www.w3.org/2000/svg">
  <path
    d="M 8.6395052,8.6395052 7.2805568,9.9984536 6.0015465,8.7194433 7.3604949,7.3604949 A 0.7993814,0.7993814 0 0 0 6.241361,6.241361 L 4.8824126,7.6003094 4.3628147,7.0807114 a 0.75941233,0.75941233 0 0 0 -1.1191341,0 L 2.0446085,8.2797835 A 3.9169689,3.9169689 0 0 0 0.84553637,11.077618 3.6371854,3.6371854 0 0 0 1.5649796,13.315886 l -1.31897927,1.31898 a 0.75941233,0.75941233 0 0 0 0,1.119134 0.75941233,0.75941233 0 0 0 1.11913397,0 l 1.2790102,-1.279011 a 4.0368761,4.0368761 0 0 0 2.3581753,0.759413 4.0768452,4.0768452 0 0 0 2.837804,-1.159103 L 9.0391959,12.876227 A 0.7993814,0.7993814 0 0 0 9.2790103,12.31666 0.67947419,0.67947419 0 0 0 9.0391959,11.757093 L 8.3996908,11.117588 9.7586391,9.7586391 A 0.7993814,0.7993814 0 0 0 8.6395052,8.6395052 Z" />
  <path
    d="m 15.754,0.24600033 a 0.75941233,0.75941233 0 0 0 -1.119134,0 L 13.275917,1.6049487 A 3.996907,3.996907 0 0 0 8.0799382,1.9646703 L 6.8808661,3.1637424 a 0.7993814,0.7993814 0 0 0 -0.2398144,0.559567 0.67947419,0.67947419 0 0 0 0.2398144,0.5595671 l 4.6763809,4.6763812 a 0.75941233,0.75941233 0 0 0 1.119134,0 l 1.199072,-1.159103 a 3.956938,3.956938 0 0 0 1.159103,-2.837804 4.1567833,4.1567833 0 0 0 -0.639505,-2.198299 L 15.754,1.3651343 a 0.75941233,0.75941233 0 0 0 0,-1.11913397 z" />
</svg>
