<?xml version="1.0" encoding="UTF-8" standalone="no"?>
<svg
   viewBox="0 0 16 16"
   fill="none"
   xmlns="http://www.w3.org/2000/svg">
  <path
     d="m 5.8116674,12.361908 c -0.1850666,0.172767 -0.3283,0.2884 -0.47469,0.37293 -0.7165333,0.41369 -1.59933,0.41369 -2.315856,0 -0.2640466,-0.152466 -0.517856,-0.40628 -1.025484,-0.913837 -0.507628,-0.507636 -0.7614456,-0.761453 -0.913883,-1.025536 -0.41368896,-0.716527 -0.41368896,-1.5993304 0,-2.3158571 0.1524367,-0.264 0.406255,-0.5178267 0.913883,-1.02546 L 4.1790508,5.2707412 C 4.6866774,4.7631145 4.9404874,4.5092945 5.2045274,4.3568579 c 0.7165334,-0.41369 1.5993467,-0.41369 2.31587,-7.7e-6 0.264,0.1524333 0.5178234,0.4062633 1.02546,0.91389 0.5076367,0.5076267 0.7614534,0.7614367 0.9139134,1.0254767 0.41369,0.7165267 0.41369,1.59933 0,2.3158567 C 9.3752374,8.7584402 9.2596041,8.9017069 9.0867641,9.0867469 M 6.9132574,6.9132402 c -0.1728333,0.1850334 -0.2884666,0.3283 -0.3730066,0.4746734 -0.4136567,0.7165266 -0.4136567,1.59933 0,2.3158566 0.1524666,0.2641 0.4062766,0.5179038 0.9139133,1.0254598 0.5076367,0.507637 0.7614533,0.761454 1.02546,0.913914 0.7165267,0.41369 1.5993299,0.41369 2.3158569,0 0.2641,-0.152467 0.517903,-0.406277 1.025536,-0.913914 l 2.18339,-2.1833898 c 0.507637,-0.5076366 0.761454,-0.7614533 0.913837,-1.02546 0.41369,-0.7165266 0.41369,-1.5993367 0,-2.3158633 -0.1524,-0.2640334 -0.4062,-0.5178567 -0.913837,-1.0254834 -0.507636,-0.5076266 -0.761453,-0.7614366 -1.02546,-0.913883 -0.716603,-0.4136889 -1.59933,-0.4136889 -2.315856,0 -0.146434,0.084513 -0.289634,0.2001734 -0.47475,0.3729684"
     stroke="#6c757d"
     stroke-width="1.5439"
     stroke-linecap="round"/>
</svg>
