<?xml version="1.0" encoding="UTF-8" standalone="no"?>
<svg viewBox="0 0 16 16" fill="#6c757d" xmlns="http://www.w3.org/2000/svg">
  <g transform="scale(0.03255208)">
    <polygon
      points="151.55,130.35 159.845,156.68 179.435,156.49 203.505,74.57 183.855,68.79 169.27,118.43 161.315,93.18 141.785,93.18 133.835,118.43 119.25,68.79 99.6,74.57 123.67,156.49 143.26,156.68 " />
    <polygon
      points="266.24,130.35 274.53,156.68 294.12,156.49 318.195,74.57 298.545,68.79 283.955,118.43 276.005,93.18 256.475,93.18 248.525,118.43 233.935,68.79 214.285,74.57 238.36,156.49 257.95,156.68 " />
    <polygon
      points="408.81,156.49 432.88,74.57 413.23,68.79 398.645,118.43 390.695,93.18 371.165,93.18 363.21,118.43 348.625,68.79 328.975,74.57 353.045,156.49 372.635,156.68 380.93,130.35 389.22,156.68 " />
  </g>
  <path
    d="M 16,1 H 1.3333333 V 3.8999349 C 0.46279297,5.0969401 0,6.5110026 0,8 0,9.8466797 0.71272786,11.58724 2.0061849,12.89974 3.3310547,14.254232 5.1046549,15 7,15 8.8953451,15 10.668945,14.254232 11.993001,12.900716 13.287272,11.58724 14,9.8466797 14,8 14,7.4349284 13.930143,6.8765951 13.797201,6.3333333 H 16 Z M 1.3333333,5.1767904 V 6.3333333 H 3.2220378 C 3.1638997,6.7691732 3.1294596,7.2151367 3.1178711,7.6666667 H 0.67988281 C 0.72496745,6.7908203 0.94609375,5.9488607 1.3333333,5.1767904 Z M 0.6827474,8.3333333 H 3.1202148 C 3.1466471,9.3882487 3.2945964,10.375423 3.5441081,11.249902 3.0877279,11.510775 2.6610026,11.827344 2.266862,12.192122 1.3104492,11.118587 0.75735677,9.7710612 0.6827474,8.3333333 Z m 2.0517578,4.3332357 c 0.3170247,-0.291374 0.6579102,-0.546582 1.0196289,-0.764258 0.3139323,0.854948 0.731836,1.567123 1.2214193,2.095671 C 4.150293,13.719857 3.3906901,13.269596 2.7345052,12.666569 Z m 3.9321615,1.630469 C 5.7244141,14.096387 4.8896159,13.057031 4.3625326,11.579622 5.0804362,11.249382 5.8582031,11.058171 6.6666667,11.016439 Z m 0,-3.947298 C 5.7891602,10.390723 4.9430339,10.588965 4.1602539,10.9375 3.9435221,10.147787 3.812793,9.263151 3.7867188,8.3333333 h 2.8799479 z m 0,-2.6830733 H 3.7845378 C 3.7967773,7.2140951 3.834082,6.7681315 3.8956055,6.3333333 h 2.7710612 z m 0.6666666,6.6303713 v -3.280632 c 0.8084636,0.04173 1.5862305,0.232943 2.3041341,0.563184 -0.5270833,1.477441 -1.3618815,2.516797 -2.3041341,2.717448 z M 10.213281,8.3333333 C 10.187207,9.263151 10.056478,10.147787 9.8397461,10.9375 9.0569661,10.588997 8.2108724,10.390723 7.3333333,10.34974 V 8.3333333 Z M 7.3333333,7.6666667 V 6.3333333 H 10.10446 c 0.06152,0.4347657 0.09883,0.8806641 0.111035,1.3333334 z m 1.6910482,6.3313473 c 0.4896159,-0.528548 0.9075521,-1.240755 1.2214845,-2.095735 0.361784,0.217708 0.702669,0.472981 1.019726,0.764355 -0.655989,0.602962 -1.4156897,1.053223 -2.2412105,1.33138 z m 2.7087895,-1.805859 c -0.394174,-0.364811 -0.820866,-0.681348 -1.277279,-0.942253 0.249512,-0.874479 0.397461,-1.8616859 0.423893,-2.9165687 h 2.437468 c -0.07461,1.4373698 -0.627539,2.7846677 -1.584082,3.8588217 z M 10.882129,7.6666667 c -0.01156,-0.4516276 -0.046,-0.8975586 -0.104134,-1.3333334 h 2.328646 c 0.118522,0.4345378 0.19056,0.8806315 0.214127,1.3333334 z m 4.451204,-2 H 2 v -4 h 13.333333 z" />
</svg>
