<?xml version="1.0" encoding="UTF-8" standalone="no"?>
<svg viewBox="0 0 16 16" xmlns="http://www.w3.org/2000/svg">
  <path
    d="m 13.883804,4.7674754 c -0.0042,-0.030951 -0.0094,-0.05823 -0.01679,-0.084984 l 0.001,0.0042 C 13.840787,4.5702295 13.785181,4.4695082 13.709115,4.3887213 L 13.70964,4.3892459 9.5129179,0.19252459 C 9.4316064,0.11593443 9.3303605,0.06032787 9.2175736,0.03409836 l -0.0042,-0.0010492 C 9.1918687,0.0267541 9.1651146,0.0215082 9.1383605,0.01783607 l -0.00315,-5.2459e-4 C 9.1110818,0.0104918 9.0822294,0.00472131 9.0523277,5.2459016e-4 L 9.0491802,0 H 2.7540982 C 2.392131,0 2.0983605,0.29377049 2.0983605,0.6557377 v 0 14.6885243 C 2.0983605,15.70623 2.392131,16 2.7540982,16 H 13.245902 c 0.361967,-5.25e-4 0.655213,-0.29377 0.655738,-0.655738 V 4.852459 c -0.0042,-0.032525 -0.01,-0.061377 -0.01784,-0.089705 l 10e-4,0.00472 z M 11.661639,4.1967213 H 9.7038687 V 2.2389508 Z M 3.4087867,14.688525 V 1.3114754 H 8.3923933 V 4.852459 c 0,0.3619672 0.2937705,0.6557377 0.6557377,0.6557377 v 0 h 3.540984 V 14.688525 Z M 8.4626884,6.4634754 C 8.3819015,6.3863607 8.280131,6.3302295 8.1668195,6.304 l -0.0042,-0.00105 C 8.1416355,6.29718 8.1159305,6.291934 8.0891765,6.288262 l -0.00315,-5.246e-4 c -0.032525,-0.00577 -0.06977,-0.00892 -0.107541,-0.00892 -0.081836,0 -0.1605245,0.015213 -0.2323934,0.043016 l 0.0042,-0.00157 h -0.0021 c -0.074492,0.033049 -0.1379672,0.076066 -0.1925246,0.1290492 v 0 c -0.0063,0.00577 -0.014164,0.00734 -0.020459,0.013639 L 4.9122621,9.085377 C 4.7931802,9.2039344 4.7197375,9.3681311 4.7197375,9.5496393 c 0,0.3624918 0.2937705,0.6562627 0.6562623,0.6562627 0.1809837,0 0.3451804,-0.07344 0.4637377,-0.192 v 0 L 7.343213,8.5099016 v 4.9668194 c 0,0.361968 0.2937705,0.655738 0.6557377,0.655738 0.3619672,0 0.6557377,-0.29377 0.6557377,-0.655738 v 0 -4.967344 l 1.5029506,1.504 c 0.118558,0.118557 0.282754,0.192 0.463738,0.192 0.362492,0 0.656262,-0.2937704 0.656262,-0.6562622 0,-0.1809837 -0.07344,-0.3451804 -0.192,-0.4637378 v 0 z" fill="#6c757d"/>
</svg>
