<?xml version="1.0" encoding="UTF-8" standalone="no"?>
<svg viewBox="0 0 16 16" fill="#6c757d" xmlns="http://www.w3.org/2000/svg">
  <path
    d="M 3.4087865,14.688525 V 1.3114754 H 8.3923931 V 4.852459 c 0,0.3619672 0.2937705,0.6557377 0.6557377,0.6557377 v 0 H 12.589115 V 14.688525 Z M 11.661639,4.1967213 H 9.7038685 V 2.2389508 Z m 2.222165,0.5707541 c -0.0042,-0.030951 -0.0094,-0.05823 -0.01679,-0.084984 l 0.001,0.0042 C 13.840787,4.5702295 13.785181,4.4695082 13.709115,4.3887213 L 13.70964,4.3892459 9.5129177,0.19252459 C 9.4316062,0.11593443 9.3303603,0.06032787 9.2175734,0.03409836 l -0.0042,-0.0010492 C 9.1918685,0.0267541 9.1651144,0.0215082 9.1383603,0.01783607 l -0.00315,-5.2459e-4 C 9.1110816,0.0104918 9.0822292,0.00472131 9.0523275,5.2459016e-4 L 9.04918,0 H 2.754098 C 2.3921308,0 2.0983603,0.29377049 2.0983603,0.6557377 v 0 14.6885243 C 2.0983603,15.70623 2.3921308,16 2.754098,16 h 10.491804 c 0.361967,-5.25e-4 0.655213,-0.29377 0.655738,-0.655738 V 4.852459 c -0.0042,-0.032525 -0.01,-0.061377 -0.01784,-0.089705 l 10e-4,0.00472 z" />
  <path
    d="m 6.1553948,8.676091 v 2.702557 c -0.1802497,-0.06653 -0.3934368,-0.08641 -0.6130301,-0.04362 -0.5275927,0.101469 -0.8909983,0.51778 -0.8114359,0.929311 0.079312,0.411749 0.5712176,0.663092 1.0986228,0.561405 0.4680304,-0.09034 0.8063422,-0.428312 0.8207172,-0.791842 h 0.00306 V 9.3380897 L 9.719419,9.0018404 v 1.9308086 c -0.1804684,-0.06634 -0.3934054,-0.08575 -0.6129363,-0.04341 -0.5276864,0.10125 -0.8908732,0.517968 -0.8116859,0.929498 0.079187,0.41153 0.5709989,0.662686 1.0986229,0.561218 0.4681241,-0.09013 0.8065293,-0.428562 0.8207173,-0.791624 h 0.0028 V 8.2305294 7.279 L 6.155426,7.7481241 V 8.676091 Z M 6.6533,8.6433411 9.7193878,8.2632793 V 8.716466 L 6.6533,9.0529028 Z" />
</svg>
