<?xml version="1.0" encoding="UTF-8" standalone="no"?>
<svg viewBox="0 0 16 16" fill="#6c757d" xmlns="http://www.w3.org/2000/svg">
  <path
    d="m 9.4805505,12.376431 0.8578035,0.612664 -0.140372,0.02241 0.140372,0.100247 c -1.3695382,0.221332 -2.4048961,0.305233 -3.1758263,0.29966 -2.2841219,0.01108 -2.3759796,-0.730094 -1.9087651,-1.101735 0.1074615,-0.138267 0.2880811,-0.250558 0.4893508,-0.300899 0,0.980312 2.26697,0.612726 3.7374371,0.367648 z M 9.7868668,10.660886 10.5221,11.151073 c -1.5933462,0.551022 -2.5700043,0.583685 -3.4387984,0.578174 -2.3316452,0.0093 -2.6478687,-0.655481 -2.2111496,-0.956906 0.066068,-0.10387 0.2020438,-0.189319 0.3808057,-0.233994 0.2450778,0.980312 2.2057006,0.490156 4.5339091,0.122539 z m 1.3479592,0.857773 c 0,0 0.74737,-0.482107 1.309569,-1.024677 0.227523,-0.2361 0.407926,-0.477555 0.467183,-0.6908993 0.306379,-1.1028812 -1.409166,-1.1028812 -1.409166,-1.1028812 0.120557,-0.043839 2.328301,-0.9196611 2.174462,0.8105587 0.0413,0.8134068 -0.747618,1.8741828 -2.504277,2.1048958 -0.05254,0.0092 -0.083,-0.0244 -0.03777,-0.097 z M 11.379904,3.185981 11.21978,3.31691 11.21328,3.349758 11.379875,3.308612 C 10.928788,3.7597281 8.9755031,4.6370362 8.9033668,5.7190196 l 0.025759,0.1628486 C 9.0833361,6.4987114 9.8683221,6.9457711 9.8185387,7.6199209 9.8497462,8.0415006 9.5655661,8.5489628 8.5615086,9.2517814 l 0.041672,-0.1180497 c -0.052477,0.0387 -0.1071829,0.077988 -0.1642418,0.1179259 L 8.8065554,8.2100458 C 9.0516333,7.4748123 7.8262441,7.2297344 7.8262441,6.249423 c 0,-0.6774006 0.31966,-1.2152653 0.7638404,-1.6356685 C 9.5831513,3.5639074 11.379904,3.185981 11.379904,3.185981 Z M 9.419281,3.9625029e-8 C 9.8438948,0.47179656 10.005103,0.92541967 9.9881984,1.3600025 10.061914,3.2389223 6.7127126,4.7692037 6.6621243,5.8819611 6.7046633,6.8662972 7.7137052,8.3426157 7.9488139,8.5777245 L 7.6852531,8.3626776 7.9488139,8.7003563 c 0,0 -0.1433748,-0.1096287 -0.3548613,-0.293499 0.1005575,0.1413005 0.1832511,0.2443348 0.2322915,0.2933442 0,0 -2.0831926,-1.592975 -2.0831926,-2.8183643 0,-0.4778027 0.2459137,-1.0254507 0.9814259,-1.7422322 C 7.129958,3.7235052 7.7046339,3.2492938 8.5002081,2.6958563 8.5986913,2.6273422 8.6879174,2.5552368 8.7686606,2.480376 9.6873001,1.4895693 9.2967111,0.12247704 9.2967111,0.12247704 9.3566803,0.18910255 9.4113553,0.25535654 9.4610458,0.32123901 9.4402717,0.19606851 9.419281,0.12263184 9.419281,0.12263184 l 0.035604,0.0401858 z M 5.9881912,8.5777245 5.5383762,8.7537619 c 0.1996288,-0.034427 0.3272451,-0.05356 0.3272451,-0.05356 -0.033746,0.012662 -0.067276,0.025294 -0.1005574,0.037957 L 5.9881912,8.7003563 C 5.3019671,8.9576942 4.6982817,9.2150321 4.5712536,9.3988095 4.7886224,9.6279121 6.4919383,9.619491 11.318634,9.0678801 l -0.276037,0.1399693 c 0.0508,-0.00576 0.101981,-0.011579 0.124706,-1.857e-4 l 0.151331,-0.017152 c 0,0 -1.3979899,0.9019213 -4.890442,0.8873703 C 5.8174479,10.079082 5.1410689,10.052122 4.3951542,9.986829 3.1612201,9.7885316 3.0049969,9.5664569 3.3109107,9.3633606 3.5065458,8.9499542 5.9881912,8.5777245 5.9881912,8.5777245 Z m -1.715545,4.6564475 -0.2073068,0.123809 c 0.028731,-8.67e-4 0.056997,-0.0013 0.075387,0.0037 l 0.1319197,-0.0049 c 0,0 -0.6156667,0.323159 -0.6981746,0.619939 0.059783,0.187462 0.4256354,0.341642 1.4334082,0.36028 6.6171023,0.122508 8.0875693,-0.857804 8.0875693,-0.857804 l -0.207586,0.224335 0.207586,-0.101672 c -0.76867,0.960838 -2.441429,1.31895 -5.4908773,1.310622 -0.8700015,4.95e-4 -1.8543377,0.09269 -2.9643398,0.03718 -2.6477755,-0.132328 -3.0070641,-0.67335 -2.5458868,-1.030162 0.2482977,-0.353097 1.4126341,-0.685327 2.1783011,-0.685327 z m 9.8031758,1.225545 c -0.790621,1.129444 -3.127684,1.54864 -5.1535698,1.540157 -2.4133789,0.0048 -4.6496679,-0.314768 -4.6496679,-0.4374 0,0 5.8816827,0.551394 9.8032377,-1.102757 z" />
</svg>
