<?xml version="1.0" encoding="UTF-8" standalone="no"?>
<svg viewBox="0 0 16 16" fill="none" xmlns="http://www.w3.org/2000/svg">
  <path
    d="m 7.441854,11.720891 c 0,0.30824 0.2499005,0.558137 0.5581459,0.558137 0.3082454,0 0.5581459,-0.249897 0.5581459,-0.558137 z m 2.976779,-5.3953268 c 0,0.3082406 0.2499,0.5581372 0.558145,0.5581372 0.308245,0 0.558146,-0.2498966 0.558146,-0.5581372 z m -5.953557,0 c 0,0.3082406 0.2498931,0.5581372 0.5581459,0.5581372 0.3082529,0 0.558146,-0.2498966 0.558146,-0.5581372 z m 6.293727,-1.8043164 0.414889,-0.3733789 v 0 z M 6.1395138,11.162754 c -0.3082529,0 -0.5581459,0.249896 -0.5581459,0.558137 0,0.30824 0.249893,0.558137 0.5581459,0.558137 z m 4.0930692,1.116274 c 0.308245,0 0.558147,-0.249897 0.558147,-0.558137 0,-0.308241 -0.249902,-0.558137 -0.558147,-0.558137 z M 6.511611,4.8371981 H 7.9999999 V 3.7209236 H 6.511611 Z m 1.4883889,0 H 9.488389 V 3.7209236 H 7.9999999 Z M 8.5581458,11.720891 V 4.2790609 H 7.441854 V 11.720891 Z M 10.418633,5.9327993 v 0.3927649 h 1.116291 V 5.9327993 Z m -5.953557,0 V 6.3255642 H 5.5813679 V 5.9327993 Z M 9.488389,4.8371981 c 0.3683018,0 0.582258,0.00146 0.734148,0.024149 0.06832,0.01021 0.100099,0.021842 0.112448,0.027497 0.0077,0.00354 0.0075,0.00419 0.0089,0.00577 L 11.173692,4.1478689 C 10.94701,3.8960299 10.663473,3.7985568 10.38745,3.7573216 10.134052,3.719465 9.8217138,3.7209236 9.488389,3.7209236 Z m 2.046535,1.0956012 c 0,-0.375552 9.67e-4,-0.7078148 -0.03125,-0.974344 -0.03357,-0.2770816 -0.110885,-0.5671567 -0.329976,-0.8105864 l -0.829777,0.7467504 c 0.002,0.00222 0.0084,0.0091 0.01749,0.033525 0.01056,0.02848 0.02359,0.078169 0.03401,0.1644049 0.02225,0.1837983 0.02322,0.4362251 0.02322,0.8402496 z M 6.511611,3.7209236 c -0.3333396,0 -0.6456334,-0.00146 -0.8990465,0.036398 -0.2760218,0.041235 -0.5595748,0.138708 -0.7862416,0.390547 L 5.6560552,4.894619 c 0.00143,-0.00158 0.00125,-0.00224 0.00898,-0.00577 C 5.6774042,4.883189 5.7091362,4.871561 5.7774979,4.861352 5.9293937,4.838661 6.1433198,4.837203 6.5116143,4.837203 Z M 5.5813679,5.9327993 c 0,-0.4040245 9.6e-4,-0.6564513 0.023204,-0.8402496 0.010434,-0.086236 0.023479,-0.1359251 0.034024,-0.164405 0.00904,-0.024424 0.015457,-0.0313 0.017458,-0.033525 L 4.8263229,4.1478689 C 4.6072395,4.3912986 4.5298954,4.6813737 4.4963619,4.9584553 4.464116,5.2249845 4.465076,5.5572473 4.465076,5.9327993 Z M 6.1395138,12.279028 H 10.232583 V 11.162754 H 6.1395138 Z"
    fill="#6c757d" />
  <path
    d="m 15.441945,7.9999758 c 0,3.5080792 0,5.2621922 -1.089873,6.3519742 -1.089798,1.089856 -2.843939,1.089856 -6.3520721,1.089856 -3.5081701,0 -5.2622515,0 -6.3520946,-1.089856 -1.08985058,-1.089782 -1.08985058,-2.843895 -1.08985058,-6.3519742 0,-3.5081158 0,-5.26217 1.08985058,-6.3519963 1.0898431,-1.08983365 2.8439245,-1.08983365 6.3520946,-1.08983365 3.5081331,0 5.2622741,0 6.3520721,1.08983365 0.724697,0.7246408 0.967528,1.7429362 1.048868,3.3752644"
    stroke="#6c757d"
    stroke-width="1.11628"
    stroke-linecap="round" />
</svg>
