<?xml version="1.0" encoding="utf-8"?><!--
  - Copyright (c) 2023. Knight Hat
  - All rights reserved.
  - Permission is hereby granted, free of charge, to any person obtaining a copy of this software and associated documentation files (the "Software"), to deal in the Software without restriction, including without limitation the rights to use,copy, modify, merge, publish, distribute, sublicense, and/or sell copies of the Software, and to permit persons to whom the Software is furnished to do so, subject to the following conditions:
  -
  - The above copyright notice and this permission notice shall be included in all copies or substantial portions of the Software.
  -
  - THE SOFTWARE IS PROVIDED "AS IS", WITHOUT WARRANTY OF ANY KIND, EXPRESS OR IMPLIED, INCLUDING BUT NOT LIMITED TO THE WARRANTIES OF MERCHANTABILITY, FITNESS FOR A PARTICULAR PURPOSE AND NONINFRINGEMENT.IN NO EVENT SHALL THE AUTHORS OR COPYRIGHT HOLDERS BE LIABLE FOR ANY CLAIM, DAMAGES OR OTHER LIABILITY, WHETHER IN AN ACTION OF CONTRACT, TORT OR OTHERWISE, ARISING FROM, OUT OF OR IN CONNECTION WITH THE SOFTWARE OR THE USE OR OTHER DEALINGS IN THE SOFTWARE.
  -->

<!-- Uploaded to: SVG Repo, www.svgrepo.com, Generator: SVG Repo Mixer Tools -->
<svg viewBox="0 0 24 24" fill="none" xmlns="http://www.w3.org/2000/svg">
    <path d="M10.5 14L17 14" stroke="#6c757d" stroke-width="1.5" stroke-linecap="round"/>
    <path d="M7 14H7.5" stroke="#6c757d" stroke-width="1.5" stroke-linecap="round"/>
    <path d="M7 10.5H7.5" stroke="#6c757d" stroke-width="1.5" stroke-linecap="round"/>
    <path d="M7 17.5H7.5" stroke="#6c757d" stroke-width="1.5" stroke-linecap="round"/>
    <path d="M10.5 10.5H17" stroke="#6c757d" stroke-width="1.5" stroke-linecap="round"/>
    <path d="M10.5 17.5H17" stroke="#6c757d" stroke-width="1.5" stroke-linecap="round"/>
    <path d="M8 3.5C8 2.67157 8.67157 2 9.5 2H14.5C15.3284 2 16 2.67157 16 3.5V4.5C16 5.32843 15.3284 6 14.5 6H9.5C8.67157 6 8 5.32843 8 4.5V3.5Z"
          stroke="#6c757d" stroke-width="1.5"/>
    <path d="M21 16.0002C21 18.8286 21 20.2429 20.1213 21.1215C19.2426 22.0002 17.8284 22.0002 15 22.0002H9C6.17157 22.0002 4.75736 22.0002 3.87868 21.1215C3 20.2429 3 18.8286 3 16.0002V13.0002M16 4.00195C18.175 4.01406 19.3529 4.11051 20.1213 4.87889C21 5.75757 21 7.17179 21 10.0002V12.0002M8 4.00195C5.82497 4.01406 4.64706 4.11051 3.87868 4.87889C3.11032 5.64725 3.01385 6.82511 3.00174 9"
          stroke="#6c757d" stroke-width="1.5" stroke-linecap="round"/>
</svg>
