<?xml version="1.0" encoding="UTF-8" standalone="no"?>
<svg
  viewBox="0 0 16 16"
  fill="none"
  stroke="#6c757d"
  stroke-width="1.11627"
  xmlns="http://www.w3.org/2000/svg">

  <g stroke-linecap="round">
    <path d="M 5.5814205,9.4882729 H 10.418579"/>
    <path d="M 7.8139554,9.4882729 H 8.1860446"/>
    <path d="M 7.8139554,6.8836489 H 8.1860446" />
    <path d="M 7.8139554,12.092897 H 8.1860446"/>
    <path d="M 5.5814205,6.8836489 H 10.418579"/>
    <path d="M 5.5814205,12.092897 H 10.418579"/>
    <path
      d="m 14.697604,10.976778 c 0,2.104834 0,3.157325 -0.653909,3.81116 -0.65391,0.65391 -1.706327,0.65391 -3.81116,0.65391 H 5.7674651 c -2.1048561,0 -3.1572804,0 -3.811175,-0.65391 C 1.3023956,14.134103 1.3023956,13.081612 1.3023956,10.976778 V 8.7442434 m 9.6743174,-6.696302 c 1.618587,0.00901 2.495155,0.080788 3.066982,0.6525997 0.653909,0.6538945 0.653909,1.7063263 0.653909,3.8111675 V 8.0000652 M 5.0232869,2.0479414 C 3.4046768,2.0569534 2.5281018,2.1287294 1.9562901,2.7005411 1.3844933,3.2723379 1.3127025,4.1488757 1.3036905,5.7673815" />
  </g>

  <path
    d="m 5.0232867,1.6744011 c 0,-0.6164996 0.4997678,-1.1162674 1.1162674,-1.1162674 h 3.7208915 c 0.6164774,0 1.1162674,0.4997678 1.1162674,1.1162674 v 0.7441783 c 0,0.6164996 -0.49979,1.1162674 -1.1162674,1.1162674 H 6.1395541 c -0.6164996,0 -1.1162674,-0.4997678 -1.1162674,-1.1162674 z" />
</svg>
