<?xml version="1.0" encoding="UTF-8" standalone="no"?>
<svg
  viewBox="0 0 16 16"
  fill="none"
  stroke="#6c757d"
  stroke-width="1.11627"
  xmlns="http://www.w3.org/2000/svg">

  <g stroke-linecap="round">
    <path
      d="m 14.841611,11.566728 c -0.260316,1.846214 -0.390398,2.769284 -1.058079,3.322128 -0.66768,0.55277 -1.652457,0.55277 -3.62201,0.55277 H 5.8383859 c -1.9695163,0 -2.9542782,0 -3.6219513,-0.55277 C 1.5487614,14.336012 1.4186113,13.412942 1.1583111,11.566728 L 0.8435442,9.3342142 C 0.51161648,6.9799552 0.34565632,5.8028626 1.0510297,5.0409654 1.7564032,4.2790607 3.0121442,4.2790607 5.5236191,4.2790607 h 4.9526919 c 2.511467,0 3.7672,0 4.472611,0.7619047 0.557244,0.6019228 0.570639,1.4630105 0.388091,2.9589504" />
    <path
      d="M 13.953355,13.953284 11.806983,12.354359 C 11.114819,11.838797 10.083977,11.787449 9.3220832,12.230602 L 9.1235353,12.346098 C 8.5941239,12.65411 7.8737552,12.602465 7.4162316,12.223682 L 4.5598952,9.859525 C 3.9897918,9.387646 3.075303,9.3624187 2.4685338,9.8018515 L 1.4832807,10.515437" />
  </g>

  <path
    d="M 13.627254,4.2790607 C 13.797449,3.3080887 13.050214,2.4186331 12.06447,2.4186331 H 3.9351539 c -0.9857814,0 -1.7329481,0.8894556 -1.5628132,1.8604276" />

  <path
    d="m 12.092898,2.4186331 c 0.02113,-0.1927999 0.03171,-0.2892221 0.03185,-0.3688484 0.0017,-0.7617558 -0.572128,-1.40180246 -1.329557,-1.48308082 -0.07918,-0.008498 -0.176147,-0.008498 -0.370082,-0.008498 H 5.57467 c -0.1939638,0 -0.2909531,0 -0.3701341,0.008498 -0.7574142,0.0812784 -1.3312012,0.72132502 -1.3295417,1.48307342 1.711e-4,0.079634 0.010731,0.1760411 0.031843,0.3688558" />

  <ellipse
    cx="11.348789"
    cy="7.6278315"
    rx="1.1162739"
    ry="1.1162566" />
</svg>
